%TF.GenerationSoftware,KiCad,Pcbnew,9.0.7*%
%TF.CreationDate,2026-04-25T21:50:48-05:00*%
%TF.ProjectId,CellScan_Schematic,43656c6c-5363-4616-9e5f-536368656d61,rev?*%
%TF.SameCoordinates,Original*%
%TF.FileFunction,Soldermask,Bot*%
%TF.FilePolarity,Negative*%
%FSLAX46Y46*%
G04 Gerber Fmt 4.6, Leading zero omitted, Abs format (unit mm)*
G04 Created by KiCad (PCBNEW 9.0.7) date 2026-04-25 21:50:48*
%MOMM*%
%LPD*%
G01*
G04 APERTURE LIST*
%ADD10O,1.700000X1.100000*%
%ADD11R,1.905000X2.000000*%
%ADD12O,1.905000X2.000000*%
%ADD13C,2.400000*%
%ADD14C,2.390000*%
%ADD15C,3.450000*%
%ADD16R,1.700000X1.700000*%
%ADD17C,1.700000*%
%ADD18R,2.000000X2.000000*%
%ADD19C,2.000000*%
%ADD20R,3.200000X2.000000*%
G04 APERTURE END LIST*
D10*
%TO.C,J3*%
X93500000Y-36180000D03*
X89700000Y-36180000D03*
X93500000Y-44820000D03*
X89700000Y-44820000D03*
%TD*%
D11*
%TO.C,Q3*%
X150460000Y-119450000D03*
D12*
X153000000Y-119450000D03*
X155540000Y-119450000D03*
%TD*%
D11*
%TO.C,Q2*%
X150460000Y-125450000D03*
D12*
X153000000Y-125450000D03*
X155540000Y-125450000D03*
%TD*%
D11*
%TO.C,Q4*%
X150460000Y-113950000D03*
D12*
X153000000Y-113950000D03*
X155540000Y-113950000D03*
%TD*%
D13*
%TO.C,R3*%
X124500000Y-164940000D03*
X124500000Y-109060000D03*
%TD*%
D14*
%TO.C,BT4*%
X102870000Y-88000000D03*
D15*
X111380000Y-104000000D03*
X166620000Y-88000000D03*
%TD*%
D16*
%TO.C,J1*%
X155310000Y-139000000D03*
D17*
X152770000Y-139000000D03*
X150230000Y-139000000D03*
X147690000Y-139000000D03*
%TD*%
D16*
%TO.C,U1*%
X160500000Y-126720000D03*
D17*
X160500000Y-129260000D03*
X160500000Y-131800000D03*
X160500000Y-134340000D03*
X160500000Y-136880000D03*
X160500000Y-139420000D03*
X160500000Y-141960000D03*
X160500000Y-144500000D03*
X160500000Y-147040000D03*
X160500000Y-149580000D03*
X160500000Y-152120000D03*
X160500000Y-154660000D03*
X160500000Y-157200000D03*
X160500000Y-159740000D03*
X160500000Y-162280000D03*
X185900000Y-162280000D03*
X185900000Y-159740000D03*
X185900000Y-157200000D03*
X185900000Y-154660000D03*
X185900000Y-152120000D03*
X185900000Y-149580000D03*
X185900000Y-147040000D03*
X185900000Y-144500000D03*
X185900000Y-141960000D03*
X185900000Y-139420000D03*
X185900000Y-136880000D03*
X185900000Y-134340000D03*
X185900000Y-131800000D03*
X185900000Y-129260000D03*
X185900000Y-126720000D03*
%TD*%
D14*
%TO.C,BT2*%
X103347800Y-44000000D03*
D15*
X111857800Y-60000000D03*
X167097800Y-44000000D03*
%TD*%
D13*
%TO.C,R1*%
X97000000Y-164940000D03*
X97000000Y-109060000D03*
%TD*%
D14*
%TO.C,BT1*%
X103320000Y-22000000D03*
D15*
X111830000Y-38000000D03*
X167070000Y-22000000D03*
%TD*%
D13*
%TO.C,R2*%
X111000000Y-164940000D03*
X111000000Y-109060000D03*
%TD*%
D11*
%TO.C,Q1*%
X150460000Y-131450000D03*
D12*
X153000000Y-131450000D03*
X155540000Y-131450000D03*
%TD*%
D13*
%TO.C,R4*%
X138500000Y-164940000D03*
X138500000Y-109060000D03*
%TD*%
D18*
%TO.C,SW1*%
X160000000Y-114000000D03*
D19*
X160000000Y-119000000D03*
X160000000Y-116500000D03*
D20*
X167500000Y-110900000D03*
X167500000Y-122100000D03*
D19*
X174500000Y-119000000D03*
X174500000Y-114000000D03*
%TD*%
D14*
%TO.C,BT3*%
X103370000Y-66000000D03*
D15*
X111880000Y-82000000D03*
X167120000Y-66000000D03*
%TD*%
M02*
