%TF.GenerationSoftware,KiCad,Pcbnew,9.0.7*%
%TF.CreationDate,2026-04-25T21:50:48-05:00*%
%TF.ProjectId,CellScan_Schematic,43656c6c-5363-4616-9e5f-536368656d61,rev?*%
%TF.SameCoordinates,Original*%
%TF.FileFunction,Paste,Top*%
%TF.FilePolarity,Positive*%
%FSLAX46Y46*%
G04 Gerber Fmt 4.6, Leading zero omitted, Abs format (unit mm)*
G04 Created by KiCad (PCBNEW 9.0.7) date 2026-04-25 21:50:48*
%MOMM*%
%LPD*%
G01*
G04 APERTURE LIST*
G04 Aperture macros list*
%AMRoundRect*
0 Rectangle with rounded corners*
0 $1 Rounding radius*
0 $2 $3 $4 $5 $6 $7 $8 $9 X,Y pos of 4 corners*
0 Add a 4 corners polygon primitive as box body*
4,1,4,$2,$3,$4,$5,$6,$7,$8,$9,$2,$3,0*
0 Add four circle primitives for the rounded corners*
1,1,$1+$1,$2,$3*
1,1,$1+$1,$4,$5*
1,1,$1+$1,$6,$7*
1,1,$1+$1,$8,$9*
0 Add four rect primitives between the rounded corners*
20,1,$1+$1,$2,$3,$4,$5,0*
20,1,$1+$1,$4,$5,$6,$7,0*
20,1,$1+$1,$6,$7,$8,$9,0*
20,1,$1+$1,$8,$9,$2,$3,0*%
G04 Aperture macros list end*
%ADD10RoundRect,0.147500X-0.147500X-0.172500X0.147500X-0.172500X0.147500X0.172500X-0.147500X0.172500X0*%
%ADD11RoundRect,0.140000X-0.140000X-0.170000X0.140000X-0.170000X0.140000X0.170000X-0.140000X0.170000X0*%
%ADD12RoundRect,0.135000X-0.135000X-0.185000X0.135000X-0.185000X0.135000X0.185000X-0.135000X0.185000X0*%
%ADD13RoundRect,0.175000X-0.425000X0.175000X-0.425000X-0.175000X0.425000X-0.175000X0.425000X0.175000X0*%
%ADD14RoundRect,0.190000X0.410000X-0.190000X0.410000X0.190000X-0.410000X0.190000X-0.410000X-0.190000X0*%
%ADD15RoundRect,0.200000X0.400000X-0.200000X0.400000X0.200000X-0.400000X0.200000X-0.400000X-0.200000X0*%
%ADD16RoundRect,0.175000X0.425000X-0.175000X0.425000X0.175000X-0.425000X0.175000X-0.425000X-0.175000X0*%
%ADD17RoundRect,0.190000X-0.410000X0.190000X-0.410000X-0.190000X0.410000X-0.190000X0.410000X0.190000X0*%
%ADD18RoundRect,0.200000X-0.400000X0.200000X-0.400000X-0.200000X0.400000X-0.200000X0.400000X0.200000X0*%
%ADD19O,1.700000X1.100000*%
%ADD20RoundRect,0.250000X-0.255000X-0.440000X0.255000X-0.440000X0.255000X0.440000X-0.255000X0.440000X0*%
%ADD21RoundRect,0.150000X-0.825000X-0.150000X0.825000X-0.150000X0.825000X0.150000X-0.825000X0.150000X0*%
%ADD22RoundRect,0.212500X-0.212500X-0.212500X0.212500X-0.212500X0.212500X0.212500X-0.212500X0.212500X0*%
%ADD23RoundRect,0.062500X-0.375000X-0.062500X0.375000X-0.062500X0.375000X0.062500X-0.375000X0.062500X0*%
%ADD24RoundRect,0.062500X-0.062500X-0.375000X0.062500X-0.375000X0.062500X0.375000X-0.062500X0.375000X0*%
%ADD25RoundRect,0.250003X-3.499997X-2.999997X3.499997X-2.999997X3.499997X2.999997X-3.499997X2.999997X0*%
G04 APERTURE END LIST*
D10*
%TO.C,BAT3RED1*%
X98000000Y-81000000D03*
X98970000Y-81000000D03*
%TD*%
%TO.C,GREEN2*%
X98515000Y-46500000D03*
X99485000Y-46500000D03*
%TD*%
D11*
%TO.C,BAT1.4*%
X93020000Y-33500000D03*
X93980000Y-33500000D03*
%TD*%
D12*
%TO.C,ENCR2*%
X177980000Y-123000000D03*
X179000000Y-123000000D03*
%TD*%
D11*
%TO.C,BAT1.3*%
X93020000Y-32500000D03*
X93980000Y-32500000D03*
%TD*%
D13*
%TO.C,J3*%
X93580000Y-40000000D03*
D14*
X93580000Y-42020000D03*
D15*
X93580000Y-43250000D03*
D16*
X93580000Y-41000000D03*
D17*
X93580000Y-38980000D03*
D18*
X93580000Y-37750000D03*
D19*
X93500000Y-36180000D03*
X89700000Y-36180000D03*
X93500000Y-44820000D03*
X89700000Y-44820000D03*
%TD*%
D11*
%TO.C,BAT2.4*%
X93520000Y-55500000D03*
X94480000Y-55500000D03*
%TD*%
D10*
%TO.C,BAT4GREEN1*%
X97515000Y-106500000D03*
X98485000Y-106500000D03*
%TD*%
D12*
%TO.C,BAT2.2*%
X93500000Y-51000000D03*
X94520000Y-51000000D03*
%TD*%
%TO.C,ENCR3*%
X182490000Y-123000000D03*
X183510000Y-123000000D03*
%TD*%
D11*
%TO.C,ENCC2*%
X180520000Y-121500000D03*
X181480000Y-121500000D03*
%TD*%
D10*
%TO.C,BAT4RED1*%
X97515000Y-103500000D03*
X98485000Y-103500000D03*
%TD*%
%TO.C,BAT2GREEN1*%
X98015000Y-60000000D03*
X98985000Y-60000000D03*
%TD*%
D20*
%TO.C,U9*%
X182200000Y-80875000D03*
X182200000Y-82525000D03*
X183400000Y-80875000D03*
X183400000Y-82525000D03*
D21*
X180325000Y-79795000D03*
X180325000Y-81065000D03*
X180325000Y-82335000D03*
X180325000Y-83605000D03*
X185275000Y-83605000D03*
X185275000Y-82335000D03*
X185275000Y-81065000D03*
X185275000Y-79795000D03*
%TD*%
D20*
%TO.C,U7*%
X182600000Y-36875000D03*
X182600000Y-38525000D03*
X183800000Y-36875000D03*
X183800000Y-38525000D03*
D21*
X180725000Y-35795000D03*
X180725000Y-37065000D03*
X180725000Y-38335000D03*
X180725000Y-39605000D03*
X185675000Y-39605000D03*
X185675000Y-38335000D03*
X185675000Y-37065000D03*
X185675000Y-35795000D03*
%TD*%
D12*
%TO.C,BAT4.2*%
X92490000Y-97000000D03*
X93510000Y-97000000D03*
%TD*%
D11*
%TO.C,BAT3.3*%
X92520000Y-76500000D03*
X93480000Y-76500000D03*
%TD*%
D22*
%TO.C,U2*%
X181037500Y-115975000D03*
X181037500Y-117025000D03*
X182087500Y-115975000D03*
X182087500Y-117025000D03*
D23*
X179625000Y-115250000D03*
X179625000Y-115750000D03*
X179625000Y-116250000D03*
X179625000Y-116750000D03*
X179625000Y-117250000D03*
X179625000Y-117750000D03*
D24*
X180312500Y-118437500D03*
X180812500Y-118437500D03*
X181312500Y-118437500D03*
X181812500Y-118437500D03*
X182312500Y-118437500D03*
X182812500Y-118437500D03*
D23*
X183500000Y-117750000D03*
X183500000Y-117250000D03*
X183500000Y-116750000D03*
X183500000Y-116250000D03*
X183500000Y-115750000D03*
X183500000Y-115250000D03*
D24*
X182812500Y-114562500D03*
X182312500Y-114562500D03*
X181812500Y-114562500D03*
X181312500Y-114562500D03*
X180812500Y-114562500D03*
X180312500Y-114562500D03*
%TD*%
D12*
%TO.C,BAT3.1*%
X92490000Y-72500000D03*
X93510000Y-72500000D03*
%TD*%
D11*
%TO.C,BAT2.3*%
X93520000Y-53500000D03*
X94480000Y-53500000D03*
%TD*%
D12*
%TO.C,BAT1.1*%
X92990000Y-30500000D03*
X94010000Y-30500000D03*
%TD*%
D21*
%TO.C,U3*%
X180525000Y-21095000D03*
X180525000Y-22365000D03*
X180525000Y-23635000D03*
X180525000Y-24905000D03*
X185475000Y-24905000D03*
X185475000Y-23635000D03*
X185475000Y-22365000D03*
X185475000Y-21095000D03*
%TD*%
D25*
%TO.C,BT4*%
X99310000Y-96000000D03*
X178690000Y-96000000D03*
%TD*%
D12*
%TO.C,BAT4.1*%
X92500000Y-94500000D03*
X93520000Y-94500000D03*
%TD*%
D11*
%TO.C,BAT4.3*%
X92500000Y-99000000D03*
X93460000Y-99000000D03*
%TD*%
D10*
%TO.C,RED2*%
X98515000Y-43000000D03*
X99485000Y-43000000D03*
%TD*%
D21*
%TO.C,U6*%
X180025000Y-86000000D03*
X180025000Y-87270000D03*
X180025000Y-88540000D03*
X180025000Y-89810000D03*
X184975000Y-89810000D03*
X184975000Y-88540000D03*
X184975000Y-87270000D03*
X184975000Y-86000000D03*
%TD*%
D10*
%TO.C,BAT1GREEN1*%
X98515000Y-35000000D03*
X99485000Y-35000000D03*
%TD*%
%TO.C,GREEN1*%
X95515000Y-23500000D03*
X96485000Y-23500000D03*
%TD*%
D21*
%TO.C,U5*%
X180025000Y-64960000D03*
X180025000Y-66230000D03*
X180025000Y-67500000D03*
X180025000Y-68770000D03*
X184975000Y-68770000D03*
X184975000Y-67500000D03*
X184975000Y-66230000D03*
X184975000Y-64960000D03*
%TD*%
D25*
%TO.C,BT2*%
X99787800Y-52000000D03*
X179167800Y-52000000D03*
%TD*%
D12*
%TO.C,BAT2.1*%
X93500000Y-48500000D03*
X94520000Y-48500000D03*
%TD*%
D21*
%TO.C,U4*%
X180525000Y-43095000D03*
X180525000Y-44365000D03*
X180525000Y-45635000D03*
X180525000Y-46905000D03*
X185475000Y-46905000D03*
X185475000Y-45635000D03*
X185475000Y-44365000D03*
X185475000Y-43095000D03*
%TD*%
D25*
%TO.C,BT1*%
X99760000Y-30000000D03*
X179140000Y-30000000D03*
%TD*%
D12*
%TO.C,R5*%
X98490000Y-39000000D03*
X99510000Y-39000000D03*
%TD*%
D10*
%TO.C,RED4*%
X97015000Y-88500000D03*
X97985000Y-88500000D03*
%TD*%
%TO.C,GREEN4*%
X97015000Y-91500000D03*
X97985000Y-91500000D03*
%TD*%
D11*
%TO.C,BAT4.4*%
X92520000Y-101500000D03*
X93480000Y-101500000D03*
%TD*%
D12*
%TO.C,BAT3.2*%
X92500000Y-74500000D03*
X93520000Y-74500000D03*
%TD*%
D11*
%TO.C,BAT3.4*%
X92520000Y-78500000D03*
X93480000Y-78500000D03*
%TD*%
D12*
%TO.C,ENCR1*%
X180490000Y-123000000D03*
X181510000Y-123000000D03*
%TD*%
D10*
%TO.C,BAT2RED1*%
X98015000Y-61500000D03*
X98985000Y-61500000D03*
%TD*%
D11*
%TO.C,ENCC1*%
X182520000Y-121500000D03*
X183480000Y-121500000D03*
%TD*%
D10*
%TO.C,GREEN3*%
X97515000Y-69500000D03*
X98485000Y-69500000D03*
%TD*%
%TO.C,BAT1RED1*%
X98515000Y-37000000D03*
X99485000Y-37000000D03*
%TD*%
%TO.C,BAT3GREEN1*%
X98015000Y-83500000D03*
X98985000Y-83500000D03*
%TD*%
D12*
%TO.C,BAT1.2*%
X92990000Y-31500000D03*
X94010000Y-31500000D03*
%TD*%
D20*
%TO.C,U8*%
X182200000Y-58875000D03*
X182200000Y-60525000D03*
X183400000Y-58875000D03*
X183400000Y-60525000D03*
D21*
X180325000Y-57795000D03*
X180325000Y-59065000D03*
X180325000Y-60335000D03*
X180325000Y-61605000D03*
X185275000Y-61605000D03*
X185275000Y-60335000D03*
X185275000Y-59065000D03*
X185275000Y-57795000D03*
%TD*%
D20*
%TO.C,U10*%
X182100000Y-105375000D03*
X182100000Y-107025000D03*
X183300000Y-105375000D03*
X183300000Y-107025000D03*
D21*
X180225000Y-104295000D03*
X180225000Y-105565000D03*
X180225000Y-106835000D03*
X180225000Y-108105000D03*
X185175000Y-108105000D03*
X185175000Y-106835000D03*
X185175000Y-105565000D03*
X185175000Y-104295000D03*
%TD*%
D10*
%TO.C,RED1*%
X95530000Y-20500000D03*
X96500000Y-20500000D03*
%TD*%
D11*
%TO.C,ENCC3*%
X178040000Y-121500000D03*
X179000000Y-121500000D03*
%TD*%
D12*
%TO.C,R6*%
X98500000Y-40500000D03*
X99520000Y-40500000D03*
%TD*%
D10*
%TO.C,RED3*%
X97530000Y-66000000D03*
X98500000Y-66000000D03*
%TD*%
D25*
%TO.C,BT3*%
X99810000Y-74000000D03*
X179190000Y-74000000D03*
%TD*%
M02*
