M48
; DRILL file {KiCad 9.0.7} date 2026-04-25T21:51:15-0500
; FORMAT={-:-/ absolute / metric / decimal}
; #@! TF.CreationDate,2026-04-25T21:51:15-05:00
; #@! TF.GenerationSoftware,Kicad,Pcbnew,9.0.7
; #@! TF.FileFunction,Plated,1,2,PTH
FMAT,2
METRIC
; #@! TA.AperFunction,Plated,PTH,ViaDrill
T1C0.300
; #@! TA.AperFunction,Plated,PTH,ComponentDrill
T2C0.300
; #@! TA.AperFunction,Plated,PTH,ComponentDrill
T3C0.600
; #@! TA.AperFunction,Plated,PTH,ComponentDrill
T4C1.000
; #@! TA.AperFunction,Plated,PTH,ComponentDrill
T5C1.100
; #@! TA.AperFunction,Plated,PTH,ComponentDrill
T6C1.200
; #@! TA.AperFunction,Plated,PTH,ComponentDrill
T7C1.500
%
G90
G05
T1
X89.379Y-31.648
X91.758Y-31.222
X92.022Y-93.101
X92.733Y-75.469
X93.23Y-79.494
X93.778Y-73.499
X94.457Y-94.182
X94.523Y-52.255
X94.849Y-30.649
X94.877Y-28.589
X95.384Y-49.72
X96.439Y-22.26
X97.788Y-89.888
X98.165Y-67.391
X98.165Y-140.617
X98.484Y-26.042
X98.485Y-89.405
X99.666Y-33.965
X99.745Y-45.57
X100.774Y-78.256
X100.778Y-89.567
X101.112Y-105.275
X103.138Y-47.13
X104.462Y-52.285
X105.131Y-81.861
X112.9Y-131.745
X124.689Y-125.891
X139.424Y-92.709
X140.035Y-107.782
X142.371Y-117.056
X154.16Y-28.689
X154.16Y-74.519
X157.299Y-128.644
X157.99Y-120.001
X159.891Y-111.108
X160.054Y-31.734
X160.054Y-54.209
X160.054Y-69.934
X160.054Y-108.22
X162.866Y-103.989
X163.001Y-78.435
X163.359Y-72.879
X163.788Y-104.075
X164.963Y-113.285
X165.948Y-114.15
X166.426Y-57.676
X168.895Y-49.317
X168.895Y-137.671
X169.277Y-46.508
X169.371Y-23.77
X169.836Y-92.709
X170.801Y-117.237
X170.932Y-74.308
X171.129Y-54.664
X171.129Y-70.72
X171.202Y-118.089
X171.988Y-114.112
X172.409Y-118.089
X173.452Y-40.746
X173.662Y-84.031
X173.688Y-53.05
X173.688Y-61.099
X174.533Y-28.403
X174.788Y-77.797
X174.79Y-22.784
X174.792Y-55.689
X174.838Y-54.563
X175.162Y-111.108
X175.818Y-24.671
X175.849Y-118.172
X175.891Y-115.301
X177.01Y-121.372
X177.033Y-116.134
X177.161Y-117.55
X177.737Y-81.715
X177.738Y-37.538
X178.141Y-114.536
X178.284Y-117.225
X178.288Y-118.831
X178.468Y-116.022
X178.554Y-66.839
X178.574Y-123.868
X178.959Y-84.204
X178.98Y-46.236
X180.205Y-120.303
X180.684Y-69.91
X180.684Y-91.066
X181.255Y-109.049
X181.297Y-113.421
X181.344Y-123.869
X182.737Y-103.51
X182.977Y-40.013
X182.996Y-22.213
X183.228Y-61.951
X183.408Y-78.575
X183.502Y-51.378
X183.506Y-41.416
X183.713Y-118.714
X183.806Y-21.892
X183.839Y-24.528
X183.946Y-103.118
X184.015Y-52.265
X184.454Y-72.238
X184.458Y-56.173
X184.528Y-118.471
X184.681Y-108.997
X184.746Y-84.802
X184.748Y-120.004
X184.866Y-54.866
X185.558Y-103.401
X185.701Y-72.513
X185.74Y-102.334
X185.786Y-78.396
X185.83Y-108.991
X185.993Y-34.309
X186.522Y-40.932
X186.561Y-26.179
X186.59Y-81.733
X186.638Y-111.281
X186.722Y-75.625
X186.86Y-60.143
X187.095Y-83.502
X187.19Y-62.012
X187.257Y-38.07
X187.295Y-39.821
T2
X182.0Y-105.0
X182.0Y-106.2
X182.0Y-107.4
X182.1Y-58.5
X182.1Y-59.7
X182.1Y-60.9
X182.1Y-80.5
X182.1Y-81.7
X182.1Y-82.9
X182.5Y-36.5
X182.5Y-37.7
X182.5Y-38.9
X183.4Y-105.0
X183.4Y-106.2
X183.4Y-107.4
X183.5Y-58.5
X183.5Y-59.7
X183.5Y-60.9
X183.5Y-80.5
X183.5Y-81.7
X183.5Y-82.9
X183.9Y-36.5
X183.9Y-37.7
X183.9Y-38.9
T4
X147.69Y-139.0
X150.23Y-139.0
X152.77Y-139.0
X155.31Y-139.0
X160.0Y-114.0
X160.0Y-116.5
X160.0Y-119.0
X160.5Y-126.72
X160.5Y-129.26
X160.5Y-131.8
X160.5Y-134.34
X160.5Y-136.88
X160.5Y-139.42
X160.5Y-141.96
X160.5Y-144.5
X160.5Y-147.04
X160.5Y-149.58
X160.5Y-152.12
X160.5Y-154.66
X160.5Y-157.2
X160.5Y-159.74
X160.5Y-162.28
X174.5Y-114.0
X174.5Y-119.0
X185.9Y-126.72
X185.9Y-129.26
X185.9Y-131.8
X185.9Y-134.34
X185.9Y-136.88
X185.9Y-139.42
X185.9Y-141.96
X185.9Y-144.5
X185.9Y-147.04
X185.9Y-149.58
X185.9Y-152.12
X185.9Y-154.66
X185.9Y-157.2
X185.9Y-159.74
X185.9Y-162.28
T5
X150.46Y-113.95
X150.46Y-119.45
X150.46Y-125.45
X150.46Y-131.45
X153.0Y-113.95
X153.0Y-119.45
X153.0Y-125.45
X153.0Y-131.45
X155.54Y-113.95
X155.54Y-119.45
X155.54Y-125.45
X155.54Y-131.45
T6
X97.0Y-109.06
X97.0Y-164.94
X111.0Y-109.06
X111.0Y-164.94
X124.5Y-109.06
X124.5Y-164.94
X138.5Y-109.06
X138.5Y-164.94
T3
G00X90.0Y-36.18
M15
G01X89.4Y-36.18
M16
G05
G00X90.0Y-44.82
M15
G01X89.4Y-44.82
M16
G05
G00X93.8Y-36.18
M15
G01X93.2Y-36.18
M16
G05
G00X93.8Y-44.82
M15
G01X93.2Y-44.82
M16
G05
T7
G00X166.85Y-110.9
M15
G01X168.15Y-110.9
M16
G05
G00X166.85Y-122.1
M15
G01X168.15Y-122.1
M16
G05
M30
